
        <svg xmlns="http://www.w3.org/2000/svg" xmlns:xlink="http://www.w3.org/1999/xlink" version="1.1" width="3160.1315432468664" 
        height="1053.9499929262315" viewBox="0 -58.3679475134828 3160.1315432468664 1053.9499929262315">
			
			<g transform="scale(8.00657716234332) translate(10, 10)">
				<defs id="SvgjsDefs1001"><linearGradient id="SvgjsLinearGradient1013"><stop id="SvgjsStop1014" stop-color="#7d141d" offset="0"></stop><stop id="SvgjsStop1015" stop-color="#ff1e27" offset="1"></stop></linearGradient><linearGradient id="SvgjsLinearGradient1016"><stop id="SvgjsStop1017" stop-color="#51504f" offset="0"></stop><stop id="SvgjsStop1018" stop-color="#939598" offset="0.5"></stop><stop id="SvgjsStop1019" stop-color="#51504f" offset="1"></stop></linearGradient></defs><g id="SvgjsG1007" featureKey="nYIUkx-0" transform="matrix(1.043438589213697,0,0,1.043438589213697,0,-7.291664676465501)" fill="#c12f2f"><g xmlns="http://www.w3.org/2000/svg"><path d="M99.9,20.1c0.1-0.3,0.1-0.5-0.1-0.8C93.9,7.4,81.9,0,68.6,0C57.3,0,47.2,5.4,40.8,13.8c-2-4.4-4.8-8.2-4.9-8.4   C35.6,5.2,35.3,5,35,5h-5c-0.3,0-0.5,0.1-0.7,0.3L27.6,7h-7.1l-1.7-1.7C18.6,5.1,18.4,5,18.1,5h-5c-0.3,0-0.6,0.2-0.8,0.4   c-0.2,0.2-4.2,5.8-6.1,11.3c-0.9,2.5-2.1,7.1-0.2,9.7c0.8,1.1,2,1.6,3.4,1.6c3,0,5.9-3.1,7.4-6c0.1,0,0.2,0,0.3,0   c1.9,0,3.4-1.3,3.8-3h6.3c0.4,1.7,2,3,3.8,3c0.1,0,0.1,0,0.2,0c0.8,1.7,2,3.4,3.5,4.6c-0.7,2.7-1.1,5.5-1.1,8.4c0,1,0.1,2,0.1,3H1   c-0.6,0-1,0.4-1,1v60c0,0.6,0.4,1,1,1h70c0.6,0,1-0.4,1-1V80h18c0.3,0,0.6-0.2,0.8-0.4C91,79.3,95,73.2,95,65   c0-2.3-0.3-4.4-0.8-6.2c2.2-2.4,4.1-5.1,5.6-8.1c0.1-0.2,0.1-0.5,0.1-0.8c-0.1-0.3-0.3-0.5-0.5-0.6L70.8,35l28.6-14.3   C99.7,20.6,99.9,20.4,99.9,20.1z M30.5,7h4c0.2,0.2,0.4,0.6,0.7,1h-5.7L30.5,7z M13.6,7h4l1,1h-5.7C13.2,7.6,13.5,7.2,13.6,7z    M17.1,20c-1.1,0-2-0.9-2-2s0.9-2,2-2s2,0.9,2,2S18.2,20,17.1,20z M29.1,18c0-1.1,0.9-2,2-2s2,0.9,2,2s-0.9,2-2,2   S29.1,19.1,29.1,18z M33.1,21.4c1.1-0.7,1.9-2,1.9-3.4c0-2.2-1.8-4-4-4c-1.9,0-3.4,1.3-3.8,3h-6.3c-0.4-1.7-2-3-3.8-3   c-2.2,0-4,1.8-4,4c0,1.4,0.7,2.6,1.8,3.3c-1.3,2.3-3.5,4.7-5.5,4.7c-0.8,0-1.4-0.3-1.8-0.8c-1-1.3-0.8-4.3,0.5-7.9   c1.1-3.1,2.9-6.2,4.2-8.3h7.8h8h7.8c1.3,2.1,3.2,5.3,4.2,8.3c1.2,3.3,1.3,6.3,0.2,7.7c-0.4,0.6-1.1,0.9-2,0.9   C36.3,26,34.3,23.7,33.1,21.4z M23,40v43H2V40H23z M2,98V85h21v13H2z M24,98V85h46v13H24z M70,83H24V40h46v10H42   c-0.3,0-0.6,0.2-0.8,0.4C41,50.7,37,56.8,37,65s4,14.3,4.2,14.6c0.2,0.3,0.5,0.4,0.8,0.4h28V83z M47,52v2h-5.5c0.4-0.9,0.8-1.6,1-2   H47z M47,78h-4.4c-0.2-0.4-0.6-1.1-1-2H47V78z M89.4,78H85v-2h5.5C90.1,76.9,89.7,77.6,89.4,78z M91.3,74H84c-0.6,0-1,0.4-1,1v3H49   v-3c0-0.6-0.4-1-1-1h-7.3c-0.9-2.4-1.7-5.5-1.7-9c0-3.5,0.8-6.6,1.7-9H48c0.6,0,1-0.4,1-1v-3h34v3c0,0.6,0.4,1,1,1h7.3   c0.9,2.4,1.7,5.5,1.7,9C93,68.5,92.2,71.6,91.3,74z M89.4,52c0.2,0.4,0.6,1.1,1,2H85v-2H89.4z M68.1,34.1c-0.3,0.2-0.6,0.5-0.6,0.9   s0.2,0.7,0.6,0.9l29.5,14.8c-1.1,2.1-2.5,4.1-4,5.9c-1.2-3.6-2.7-5.9-2.8-6.1C90.6,50.2,90.3,50,90,50H72V39c0-0.6-0.4-1-1-1H35.7   c-0.1-1-0.2-2-0.2-3c0-2.5,0.3-5,0.8-7.4c0.6,0.2,1.2,0.4,1.9,0.4c1.5,0,2.8-0.6,3.6-1.8c1.4-2,1.4-5.5,0-9.6   c-0.1-0.2-0.2-0.5-0.3-0.7c6-8.4,15.8-14,26.9-14c12.2,0,23.3,6.6,29.1,17.4L68.1,34.1z"></path><path d="M64.1,90H29.9c-0.5,0-0.9,0.4-0.9,0.9v1.1c0,0.5,0.4,0.9,0.9,0.9h34.1c0.5,0,0.9-0.4,0.9-0.9v-1.1C65,90.4,64.6,90,64.1,90   z M64,92H30v-1h34V92z"></path><path d="M17,48c1.1,0,2-0.9,2-2s-0.9-2-2-2c-1.1,0-2,0.9-2,2S15.9,48,17,48z M17,45c0.6,0,1,0.4,1,1s-0.4,1-1,1s-1-0.4-1-1   S16.4,45,17,45z"></path><path d="M53,76h26V54H53V76z M54,55h24v20H54V55z"></path><path d="M86,60c-2.8,0-5,2.2-5,5s2.2,5,5,5s5-2.2,5-5S88.8,60,86,60z M86,69c-2.2,0-4-1.8-4-4s1.8-4,4-4c2.2,0,4,1.8,4,4   S88.2,69,86,69z"></path><path d="M49.4,63H48v-1.4c0-0.9-0.7-1.6-1.6-1.6h-0.7c-0.9,0-1.6,0.7-1.6,1.6V63h-1.4c-0.9,0-1.6,0.7-1.6,1.6v0.7   c0,0.9,0.7,1.6,1.6,1.6H44v1.4c0,0.9,0.7,1.6,1.6,1.6h0.7c0.9,0,1.6-0.7,1.6-1.6V67h1.4c0.9,0,1.6-0.7,1.6-1.6v-0.7   C51,63.7,50.3,63,49.4,63z M50,65.4c0,0.3-0.3,0.6-0.6,0.6H47v2.4c0,0.3-0.3,0.6-0.6,0.6h-0.7c-0.3,0-0.6-0.3-0.6-0.6V66h-2.4   c-0.3,0-0.6-0.3-0.6-0.6v-0.7c0-0.3,0.3-0.6,0.6-0.6H45v-2.4c0-0.3,0.3-0.6,0.6-0.6h0.7c0.3,0,0.6,0.3,0.6,0.6V64h2.4   c0.3,0,0.6,0.3,0.6,0.6V65.4z"></path><path d="M70.5,15C68,15,66,17,66,19.5s2,4.5,4.5,4.5s4.5-2,4.5-4.5S73,15,70.5,15z M70.5,22c-1.4,0-2.5-1.1-2.5-2.5   s1.1-2.5,2.5-2.5s2.5,1.1,2.5,2.5S71.9,22,70.5,22z"></path></g></g><g id="SvgjsG1008" featureKey="PXhRQw-0" transform="matrix(3.5402297316434748,0,0,3.5402297316434748,126.87586207660826,-2.4712618359260254)" fill="url(#SvgjsLinearGradient1013)"><path d="M0.6 5.5 l2.76 0 l1.48 5.82 l0 -5.82 l2.98 0 l0 14.5 l-2.98 0 l-1.56 -6.06 l0 6.06 l-2.68 0 l0 -14.5 z M9.02 5.5 l5.64 0 l0.5 2.7 l-3.16 0 l0 3.44 l2.4 0 l0 2.5 l-2.4 0 l0 3.16 l3.04 0 l-0.5 2.7 l-5.52 0 l0 -14.5 z M21.740000000000002 12.440000000000001 l2.06 7.56 l-2.94 0 l-1.12 -5.1 l-1.1 5.1 l-2.94 0 l2.06 -7.56 l-1.98 -6.94 l2.88 0 l1.08 5.1 l1.12 -5.1 l2.86 0 z M30.16 5.5 l0.72 2.7 l-1.94 0 l0 11.8 l-2.96 0 l0 -11.8 l-1.94 0 l0.76 -2.7 l5.36 0 z M34.18 5.5 l2.98 0 l0 11.8 l2.92 0 l-0.5 2.7 l-5.4 0 l0 -14.5 z M40.98 5.5 l5.64 0 l0.5 2.7 l-3.16 0 l0 3.44 l2.4 0 l0 2.5 l-2.4 0 l0 3.16 l3.04 0 l-0.5 2.7 l-5.52 0 l0 -14.5 z M53.22 5.5 l2.94 0 l-2.68 14.5 l-3.02 0 l-2.68 -14.5 l2.94 0 l0.26 1.86 l0.98 7.5 l1 -7.54 z M56.96 5.5 l5.64 0 l0.5 2.7 l-3.16 0 l0 3.44 l2.4 0 l0 2.5 l-2.4 0 l0 3.16 l3.04 0 l-0.5 2.7 l-5.52 0 l0 -14.5 z M64.1 5.5 l2.98 0 l0 11.8 l2.92 0 l-0.5 2.7 l-5.4 0 l0 -14.5 z"></path></g><g id="SvgjsG1009" featureKey="mlRtrp-0" transform="matrix(0.7002770297439972,0,0,0.7002770297439972,132.93158351868428,73.63013091515434)" fill="url(#SvgjsLinearGradient1016)"><path d="M12.881 17.4609 l-7.4805 0 l-1.2598 2.5391 l-4.043 0 l7.0215 -13.418 l4.043 0 l7.0215 13.418 l-4.043 0 z M6.6992 14.8437 l4.9023 0 l-2.4414 -4.9414 z M25.964834375 20 l0 -13.418 l3.623 0 l0 10.479 l9.7949 0 l0 2.9395 l-13.418 0 z M54.117146875 9.502 l0 10.498 l-3.623 0 l0 -10.498 l-5.6934 0 l0 -2.9199 l15.02 0 l0 2.9199 l-5.7031 0 z M77.797015625 17.4609 l-7.4805 0 l-1.2598 2.5391 l-4.043 0 l7.0215 -13.418 l4.043 0 l7.0215 13.418 l-4.043 0 z M71.615215625 14.8437 l4.9023 0 l-2.4414 -4.9414 z M119.062765625 11.1621 c0 0.67058 -0.097656 1.2874 -0.29297 1.8506 s-0.50944 1.0481 -0.94238 1.4551 s-0.99443 0.72429 -1.6846 0.95215 s-1.53 0.3418 -2.5195 0.3418 l-6.0156 0 l0 4.2383 l-3.623 0 l0 -13.418 l9.6387 0 c0.98955 0 1.8294 0.1123 2.5195 0.33691 s1.2517 0.54036 1.6846 0.94727 s0.74707 0.8903 0.94238 1.4502 s0.29297 1.1751 0.29297 1.8457 z M115.400765625 11.2207 c0 -0.3125 -0.043945 -0.58104 -0.13184 -0.80565 s-0.23274 -0.40853 -0.43457 -0.55176 s-0.4655 -0.24902 -0.79102 -0.31738 s-0.72591 -0.10254 -1.2012 -0.10254 l-5.2344 0 l0 3.457 l5.2344 0 c0.47526 0 0.87565 -0.027666 1.2012 -0.083008 s0.58919 -0.14975 0.79102 -0.28321 s0.34668 -0.30762 0.43457 -0.52246 s0.13184 -0.47852 0.13184 -0.79102 z M127.644521875 20 l0 -13.418 l13.584 0 l0 2.8613 l-9.8633 0 l0 2.2168 l9.3555 0 l0 2.8613 l-9.3555 0 l0 2.6172 l10 0 l0 2.8613 l-13.721 0 z M154.068403125 20 l-3.623 0 l0 -13.418 l9.082 0 c0.97656 0 1.805 0.10091 2.4854 0.30273 s1.2337 0.48828 1.6602 0.85938 s0.73568 0.81868 0.92774 1.3428 s0.28809 1.1084 0.28809 1.7529 c0 0.56641 -0.079756 1.0612 -0.23926 1.4844 s-0.37435 0.78613 -0.64453 1.0889 s-0.58432 0.55827 -0.94239 0.7666 s-0.73568 0.38086 -1.1328 0.51758 l4.3945 5.3027 l-4.2383 0 l-4.0625 -4.9414 l-3.9551 0 l0 4.9414 z M161.226703125 10.8203 c0 -0.26042 -0.03418 -0.48174 -0.10254 -0.66403 s-0.18718 -0.33041 -0.35645 -0.44435 s-0.39551 -0.19694 -0.67871 -0.24902 s-0.6364 -0.078125 -1.0596 -0.078125 l-4.9609 0 l0 2.8711 l4.9609 0 c0.42317 0 0.77637 -0.026045 1.0596 -0.078125 s0.50944 -0.13509 0.67871 -0.24902 s0.28809 -0.26205 0.35645 -0.44435 s0.10254 -0.40365 0.10254 -0.66407 z M178.12895 9.443 l0 2.334 l8.7207 0 l0 2.8613 l-8.7207 0 l0 5.3613 l-3.623 0 l0 -13.418 l12.822 0 l0 2.8613 l-9.1992 0 z M213.371203125 13.300799999999999 c0 1.1523 -0.21159 2.1696 -0.63477 3.0518 s-1.0286 1.6194 -1.8164 2.2119 s-1.7432 1.04 -2.8662 1.3428 s-2.3845 0.4541 -3.7842 0.4541 s-2.6644 -0.15137 -3.7939 -0.4541 s-2.0915 -0.75032 -2.8857 -1.3428 s-1.4063 -1.3298 -1.8359 -2.2119 s-0.64453 -1.8994 -0.64453 -3.0518 s0.21484 -2.1696 0.64453 -3.0518 s1.0417 -1.6194 1.8359 -2.2119 s1.7562 -1.04 2.8857 -1.3428 s2.3942 -0.4541 3.7939 -0.4541 s2.6611 0.15137 3.7842 0.4541 s2.0784 0.75032 2.8662 1.3428 s1.3933 1.3298 1.8164 2.2119 s0.63477 1.8994 0.63477 3.0518 z M209.709203125 13.300799999999999 c0 -0.5013 -0.079756 -1.001 -0.23926 -1.499 s-0.44271 -0.94563 -0.84961 -1.3428 s-0.96191 -0.7194 -1.665 -0.9668 s-1.5983 -0.37109 -2.6855 -0.37109 c-0.72917 0 -1.3704 0.056963 -1.9238 0.1709 s-1.0319 0.27182 -1.4355 0.47364 s-0.74219 0.43783 -1.0156 0.70802 s-0.49153 0.5599 -0.6543 0.86915 s-0.27832 0.63151 -0.34668 0.9668 s-0.10254 0.66568 -0.10254 0.99121 c0 0.33203 0.03418 0.66731 0.10254 1.0059 s0.18392 0.66244 0.34668 0.97169 s0.38086 0.59733 0.6543 0.86426 s0.61198 0.49967 1.0156 0.69823 s0.88216 0.35481 1.4355 0.46875 s1.1946 0.1709 1.9238 0.1709 c1.0872 0 1.9824 -0.1237 2.6855 -0.37109 s1.2581 -0.56966 1.665 -0.9668 s0.69011 -0.84473 0.84961 -1.3428 s0.23926 -0.99775 0.23926 -1.499 z M239.31625 20 l0 -9.4238 l-4.9805 9.4238 l-3.4766 0 l-4.9805 -9.4238 l0 9.4238 l-3.623 0 l0 -13.418 l4.9219 0 l5.4199 10.156 l5.4199 -10.156 l4.9023 0 l0 13.418 l-3.6035 0 z M263.484515625 17.4609 l-7.4805 0 l-1.2598 2.5391 l-4.043 0 l7.0215 -13.418 l4.043 0 l7.0215 13.418 l-4.043 0 z M257.302715625 14.8437 l4.9023 0 l-2.4414 -4.9414 z M289.24375 20 l-9.0527 -9.2188 l0 9.2188 l-3.623 0 l0 -13.418 l3.9355 0 l9.0625 9.2578 l0 -9.2578 l3.6035 0 l0 13.418 l-3.9258 0 z M317.738515625 19.08203 c-0.46875 0.19531 -0.94076 0.37102 -1.416 0.52727 s-0.9668 0.29134 -1.4746 0.40527 s-1.0433 0.2002 -1.6064 0.25879 s-1.167 0.087891 -1.8115 0.087891 c-1.3672 0 -2.6253 -0.14648 -3.7744 -0.43945 s-2.1387 -0.73405 -2.9688 -1.3232 s-1.4763 -1.3249 -1.9385 -2.207 s-0.69336 -1.9124 -0.69336 -3.0908 s0.23112 -2.2087 0.69336 -3.0908 s1.1084 -1.6179 1.9385 -2.207 s1.8196 -1.0303 2.9688 -1.3232 s2.4072 -0.43945 3.7744 -0.43945 c0.64453 0 1.2483 0.029297 1.8115 0.087891 s1.0986 0.14485 1.6064 0.25879 s0.99932 0.24902 1.4746 0.40527 s0.94727 0.33203 1.416 0.52734 l0 3.2617 c-0.37109 -0.20183 -0.76172 -0.40202 -1.1719 -0.60059 s-0.86263 -0.3776 -1.3574 -0.5371 s-1.0384 -0.28971 -1.6309 -0.39062 s-1.2598 -0.15137 -2.002 -0.15137 c-1.1394 0 -2.085 0.11719 -2.8369 0.35156 s-1.3525 0.54688 -1.8018 0.9375 s-0.76497 0.83821 -0.94727 1.3428 s-0.27344 1.0271 -0.27344 1.5674 c0 0.35808 0.039063 0.71127 0.11719 1.0596 s0.20833 0.67709 0.39063 0.98633 s0.41992 0.59408 0.71289 0.8545 s0.65755 0.48503 1.0938 0.67383 s0.94564 0.33691 1.5283 0.44434 s1.2549 0.16113 2.0166 0.16113 c0.74219 0 1.4095 -0.047197 2.002 -0.1416 s1.136 -0.21973 1.6309 -0.37598 s0.94727 -0.33366 1.3574 -0.53223 s0.80078 -0.40201 1.1719 -0.61034 l0 3.2617 l0 0 z M326.7011625 20 l0 -13.418 l13.584 0 l0 2.8613 l-9.8633 0 l0 2.2168 l9.3555 0 l0 2.8613 l-9.3555 0 l0 2.6172 l10 0 l0 2.8613 l-13.721 0 z"></path></g>
			</g>
		</svg>
	